# xmcd
#
# Track frame offsets: 
#        150
#        14176
#        21817
#        33745
#        52196
#        63921
#        75980
#        85425
#        103800
#        112520
#        127089
#        138411
#        148781
#        158042
#        174108
#        187153
#        195177
#        207796
#        214667
#        220094
#        230720
#        236698
#        251019
#        260779
#        276402
#        291630
#
# Disc length: 4150 seconds
#
# Revision: 2
# Processed by: cddbd v1.5.2PL0 Copyright (c) Steve Scherf et al.
# Submitted via: ExactAudioCopy v1.1
#
DISCID=9010341a
DTITLE=Various Artist - Black Hole - Jon Savage Presents Californian Punk 197
DTITLE=7-80
DYEAR=2010
DGENRE=Punk
TTITLE0=Germs - Forming
TTITLE1=The Dils - I Hate The Rich
TTITLE2=Screamers - Peer Pressure
TTITLE3=Crime - Murder By Guitar
TTITLE4=The Zeros - WIMP
TTITLE5=Avengers - We Are The One
TTITLE6=The Consumers - Anti Anti Anti
TTITLE7=Randoms - A-B-C-D
TTITLE8=Black Randy and The Metrosquad - Trouble At The Cup
TTITLE9=The Alley Cats - Nothing Means Nothing Anymore
TTITLE10=The Weirdos - Solitary Confinement
TTITLE11=The Zeros - Beat Your Heart Out
TTITLE12=X - We're Desperate
TTITLE13=The Offs - 624803
TTITLE14=Sleepers - Seventh World
TTITLE15=The Middle Class - Situations
TTITLE16=The Bags - Survive
TTITLE17=Germs - Media Blitz
TTITLE18=The Middle Class - Love Is Just A Tool
TTITLE19=The Flesh Eaters - Pony Dress
TTITLE20=Urinals - Black Hole
TTITLE21=Aurora Pushups - Victims Of Terrorism
TTITLE22=Avengers - The American In Me
TTITLE23=Dead Kennedys - California Uber Alles
TTITLE24=The Dils - The Sound Of Rain
TTITLE25=Sleepers - Los Gatos
EXTD=
EXTT0=
EXTT1=
EXTT2=
EXTT3=
EXTT4=
EXTT5=
EXTT6=
EXTT7=
EXTT8=
EXTT9=
EXTT10=
EXTT11=
EXTT12=
EXTT13=
EXTT14=
EXTT15=
EXTT16=
EXTT17=
EXTT18=
EXTT19=
EXTT20=
EXTT21=
EXTT22=
EXTT23=
EXTT24=
EXTT25=
PLAYORDER=
